<svg xmlns="http://www.w3.org/2000/svg" xmlns:xlink="http://www.w3.org/1999/xlink" width="97.133" height="37.846" viewBox="0 0 97.133 37.846">
  <defs>
    <clipPath id="clip-path">
      <path id="Pfad_57" data-name="Pfad 57" d="M154-572h20.5v31.538H154Z" transform="translate(-154 572)" fill="#fff" clip-rule="evenodd"/>
    </clipPath>
    <clipPath id="clip-path-2">
      <path id="Pfad_56" data-name="Pfad 56" d="M0,468.447H591.339V-812H0Z" transform="translate(0 812)" fill="#fff"/>
    </clipPath>
    <clipPath id="clip-path-3">
      <path id="Pfad_63" data-name="Pfad 63" d="M138-572h20.5v31.538H138Z" transform="translate(-138 572)" fill="#fff" clip-rule="evenodd"/>
    </clipPath>
    <clipPath id="clip-path-5">
      <path id="Pfad_69" data-name="Pfad 69" d="M145-574h23.654v37.846H145Z" transform="translate(-145 574)" fill="#fff" clip-rule="evenodd"/>
    </clipPath>
    <clipPath id="clip-path-7">
      <path id="Clip_8" data-name="Clip 8" d="M0,0H20.133V11.2H0Z" fill="none"/>
    </clipPath>
  </defs>
  <g id="Gruppe_1775" data-name="Gruppe 1775" transform="translate(-139 -276)">
    <g id="Gruppe_753" data-name="Gruppe 753" transform="translate(27 33)">
      <g id="Gruppe_166" data-name="Gruppe 166" transform="translate(163.23 246.154)" clip-path="url(#clip-path)">
        <g id="Gruppe_165" data-name="Gruppe 165" transform="translate(-242.843 -378.457)" clip-path="url(#clip-path-2)">
          <g id="Gruppe_164" data-name="Gruppe 164" transform="translate(242.843 378.457)">
            <path id="Pfad_55" data-name="Pfad 55" d="M0,0H20.5V31.538H0Z" fill="#fff" stroke="#000" stroke-width="4"/>
          </g>
        </g>
      </g>
      <g id="Gruppe_171" data-name="Gruppe 171" transform="translate(138 246.154)" clip-path="url(#clip-path-3)">
        <g id="Gruppe_170" data-name="Gruppe 170" transform="translate(-217.613 -378.457)" clip-path="url(#clip-path-2)">
          <g id="Gruppe_169" data-name="Gruppe 169" transform="translate(217.613 378.457)">
            <path id="Pfad_61" data-name="Pfad 61" d="M0,0H20.5V31.538H0Z" fill="#fff" stroke="#000" stroke-width="4"/>
          </g>
        </g>
      </g>
      <g id="Gruppe_176" data-name="Gruppe 176" transform="translate(149.038 243)" clip-path="url(#clip-path-5)">
        <g id="Gruppe_175" data-name="Gruppe 175" transform="translate(-228.651 -375.303)" clip-path="url(#clip-path-2)">
          <g id="Gruppe_174" data-name="Gruppe 174" transform="translate(228.651 375.303)">
            <path id="Pfad_67" data-name="Pfad 67" d="M0,0H23.654V37.846H0Z" fill="#fff" stroke="#000" stroke-width="4"/>
          </g>
        </g>
      </g>
    </g>
    <path id="Clip_8-3" data-name="Clip 8" d="M0,0H20.133V11.2H0Z" transform="translate(139 276.023)" fill="none"/>
    <g id="Group_9" data-name="Group 9" transform="translate(139 289.023)" clip-path="url(#clip-path-7)">
      <path id="Fill_7" data-name="Fill 7" d="M3.923,6.9c.812.789,1.629,1.572,2.432,2.37a1.073,1.073,0,0,1,.2,1.38,1.009,1.009,0,0,1-1.231.5,1.44,1.44,0,0,1-.6-.367Q2.575,8.661.456,6.515A1.131,1.131,0,0,1,.47,4.69Q2.567,2.57,4.681.467A1.12,1.12,0,0,1,6.406.355a1.16,1.16,0,0,1-.146,1.687C5.5,2.809,4.717,3.56,3.944,4.318l.076.158h.752l13.746,0c.109,0,.218,0,.327,0A1.181,1.181,0,0,1,20.133,5.59c.008.672-.507,1.126-1.324,1.127q-6.775.006-13.549,0H4.031l-.109.18" transform="translate(0 0)"/>
    </g>
    <path id="Clip_8-4" data-name="Clip 8" d="M0,0H20.133V11.2H0Z" transform="translate(200.133 287.219) rotate(180)" fill="none"/>
    <g id="Group_9-2" data-name="Group 9" transform="translate(236.133 300.219) rotate(180)" clip-path="url(#clip-path-7)">
      <path id="Fill_7-2" data-name="Fill 7" d="M3.923,6.9c.812.789,1.629,1.572,2.432,2.37a1.073,1.073,0,0,1,.2,1.38,1.009,1.009,0,0,1-1.231.5,1.44,1.44,0,0,1-.6-.367Q2.575,8.661.456,6.515A1.131,1.131,0,0,1,.47,4.69Q2.567,2.57,4.681.467A1.12,1.12,0,0,1,6.406.355a1.16,1.16,0,0,1-.146,1.687C5.5,2.809,4.717,3.56,3.944,4.318l.076.158h.752l13.746,0c.109,0,.218,0,.327,0A1.181,1.181,0,0,1,20.133,5.59c.008.672-.507,1.126-1.324,1.127q-6.775.006-13.549,0H4.031l-.109.18" transform="translate(0 0)"/>
    </g>
  </g>
</svg>
