<svg xmlns="http://www.w3.org/2000/svg" xmlns:xlink="http://www.w3.org/1999/xlink" width="138.133" height="37.846" viewBox="0 0 138.133 37.846">
  <defs>
    <clipPath id="clip-path">
      <path id="Pfad_69" data-name="Pfad 69" d="M145-574h23.654v37.846H145Z" transform="translate(-145 574)" fill="#fff" clip-rule="evenodd"/>
    </clipPath>
    <clipPath id="clip-path-2">
      <path id="Pfad_68" data-name="Pfad 68" d="M0,468.447H591.339V-812H0Z" transform="translate(0 812)" fill="#fff"/>
    </clipPath>
    <clipPath id="clip-path-7">
      <path id="Clip_8" data-name="Clip 8" d="M0,0H20.133V11.2H0Z" fill="none"/>
    </clipPath>
  </defs>
  <g id="Gruppe_1785" data-name="Gruppe 1785" transform="translate(-118 -437)">
    <g id="Gruppe_176" data-name="Gruppe 176" transform="translate(145.038 437)" clip-path="url(#clip-path)">
      <g id="Gruppe_175" data-name="Gruppe 175" transform="translate(-228.651 -375.303)" clip-path="url(#clip-path-2)">
        <g id="Gruppe_174" data-name="Gruppe 174" transform="translate(228.651 375.303)">
          <path id="Pfad_67" data-name="Pfad 67" d="M0,0H23.654V37.846H0Z" fill="#fff" stroke="#000" stroke-width="4"/>
        </g>
      </g>
    </g>
    <g id="Gruppe_1781" data-name="Gruppe 1781" transform="translate(175.038 437)" clip-path="url(#clip-path)">
      <g id="Gruppe_1780" data-name="Gruppe 1780" transform="translate(-228.651 -375.303)" clip-path="url(#clip-path-2)">
        <g id="Gruppe_1779" data-name="Gruppe 1779" transform="translate(228.651 375.303)">
          <path id="Pfad_943" data-name="Pfad 943" d="M0,0H23.654V37.846H0Z" fill="#fff" stroke="#000" stroke-width="4"/>
        </g>
      </g>
    </g>
    <g id="Gruppe_1784" data-name="Gruppe 1784" transform="translate(206.038 437)" clip-path="url(#clip-path)">
      <g id="Gruppe_1783" data-name="Gruppe 1783" transform="translate(-228.651 -375.303)" clip-path="url(#clip-path-2)">
        <g id="Gruppe_1782" data-name="Gruppe 1782" transform="translate(228.651 375.303)">
          <path id="Pfad_946" data-name="Pfad 946" d="M0,0H23.654V37.846H0Z" fill="#fff" stroke="#000" stroke-width="4"/>
        </g>
      </g>
    </g>
    <path id="Clip_8-3" data-name="Clip 8" d="M0,0H20.133V11.2H0Z" transform="translate(123 462.023)" fill="none"/>
    <g id="Group_9" data-name="Group 9" transform="translate(118 448.023)" clip-path="url(#clip-path-7)">
      <path id="Fill_7" data-name="Fill 7" d="M3.923,6.9c.812.789,1.629,1.572,2.432,2.37a1.073,1.073,0,0,1,.2,1.38,1.009,1.009,0,0,1-1.231.5,1.44,1.44,0,0,1-.6-.367Q2.575,8.661.456,6.515A1.131,1.131,0,0,1,.47,4.69Q2.567,2.57,4.681.467A1.12,1.12,0,0,1,6.406.355a1.16,1.16,0,0,1-.146,1.687C5.5,2.809,4.717,3.56,3.944,4.318l.076.158h.752l13.746,0c.109,0,.218,0,.327,0A1.181,1.181,0,0,1,20.133,5.59c.008.672-.507,1.126-1.324,1.127q-6.775.006-13.549,0H4.031l-.109.18" transform="translate(0 0)"/>
    </g>
    <path id="Clip_8-4" data-name="Clip 8" d="M0,0H20.133V11.2H0Z" transform="translate(169.133 448.219) rotate(180)" fill="none"/>
    <g id="Group_9-2" data-name="Group 9" transform="translate(256.133 459.219) rotate(180)" clip-path="url(#clip-path-7)">
      <path id="Fill_7-2" data-name="Fill 7" d="M3.923,6.9c.812.789,1.629,1.572,2.432,2.37a1.073,1.073,0,0,1,.2,1.38,1.009,1.009,0,0,1-1.231.5,1.44,1.44,0,0,1-.6-.367Q2.575,8.661.456,6.515A1.131,1.131,0,0,1,.47,4.69Q2.567,2.57,4.681.467A1.12,1.12,0,0,1,6.406.355a1.16,1.16,0,0,1-.146,1.687C5.5,2.809,4.717,3.56,3.944,4.318l.076.158h.752l13.746,0c.109,0,.218,0,.327,0A1.181,1.181,0,0,1,20.133,5.59c.008.672-.507,1.126-1.324,1.127q-6.775.006-13.549,0H4.031l-.109.18" transform="translate(0 0)"/>
    </g>
    <line id="Linie_315" data-name="Linie 315" x2="7" transform="translate(146.5 443)" fill="none" stroke="#d5102e" stroke-width="3"/>
    <line id="Linie_316" data-name="Linie 316" x2="7" transform="translate(176.5 443)" fill="none" stroke="#d5102e" stroke-width="3"/>
    <line id="Linie_317" data-name="Linie 317" x2="7" transform="translate(207.5 443)" fill="none" stroke="#d5102e" stroke-width="3"/>
    <text id="Lesen_Sie_in_dieser" data-name="Lesen Sie in dieser" transform="translate(154 441)" fill="#1a1919" font-size="3" font-family="AktivGrotesk-Bold, Aktiv Grotesk" font-weight="700"><tspan x="2.152" y="3">inland</tspan></text>
    <text id="Lesen_Sie_in_dieser-2" data-name="Lesen Sie in dieser" transform="translate(184 441)" fill="#1a1919" font-size="3" font-family="AktivGrotesk-Bold, Aktiv Grotesk" font-weight="700"><tspan x="0.911" y="3">ausland</tspan></text>
    <text id="Lesen_Sie_in_dieser-3" data-name="Lesen Sie in dieser" transform="translate(216 441)" fill="#1a1919" font-size="3" font-family="AktivGrotesk-Bold, Aktiv Grotesk" font-weight="700"><tspan x="2.293" y="3">kultur</tspan></text>
  </g>
</svg>
