<svg xmlns="http://www.w3.org/2000/svg" xmlns:xlink="http://www.w3.org/1999/xlink" width="23.88" height="79.807" viewBox="0 0 23.88 79.807">
  <defs>
    <clipPath id="clip-path">
      <path id="Pfad_69" data-name="Pfad 69" d="M145-574h23.654v37.846H145Z" transform="translate(-145 574)" fill="#fff" clip-rule="evenodd"/>
    </clipPath>
    <clipPath id="clip-path-2">
      <path id="Pfad_68" data-name="Pfad 68" d="M0,468.447H591.339V-812H0Z" transform="translate(0 812)" fill="#fff"/>
    </clipPath>
    <clipPath id="clip-path-3">
      <path id="Pfad_69-2" data-name="Pfad 69" d="M145-574h9.88v15.807H145Z" transform="translate(-145 574)" fill="#fff" clip-rule="evenodd"/>
    </clipPath>
    <clipPath id="clip-path-4">
      <path id="Pfad_68-2" data-name="Pfad 68" d="M0-277.182H246.991V-812H0Z" transform="translate(0 812)" fill="#fff"/>
    </clipPath>
    <clipPath id="clip-path-11">
      <path id="Clip_8" data-name="Clip 8" d="M0,0H20.133V11.2H0Z" fill="none"/>
    </clipPath>
  </defs>
  <g id="Gruppe_1774" data-name="Gruppe 1774" transform="translate(-176.038 -379)">
    <g id="Gruppe_1769" data-name="Gruppe 1769" transform="translate(27 136)">
      <g id="Gruppe_176" data-name="Gruppe 176" transform="translate(149.038 243)" clip-path="url(#clip-path)">
        <g id="Gruppe_175" data-name="Gruppe 175" transform="translate(-228.651 -375.303)" clip-path="url(#clip-path-2)">
          <g id="Gruppe_174" data-name="Gruppe 174" transform="translate(228.651 375.303)">
            <path id="Pfad_67" data-name="Pfad 67" d="M0,0H23.654V37.846H0Z" fill="#fff" stroke="#000" stroke-width="4"/>
          </g>
        </g>
      </g>
    </g>
    <g id="Gruppe_1770" data-name="Gruppe 1770" transform="translate(27 180)">
      <g id="Gruppe_176-2" data-name="Gruppe 176" transform="translate(149.038 243)" clip-path="url(#clip-path-3)">
        <g id="Gruppe_175-2" data-name="Gruppe 175" transform="translate(-95.503 -156.757)" clip-path="url(#clip-path-4)">
          <g id="Gruppe_174-2" data-name="Gruppe 174" transform="translate(95.503 156.757)">
            <path id="Pfad_67-2" data-name="Pfad 67" d="M0,0H9.88V15.807H0Z" fill="#fff" stroke="#000" stroke-width="4"/>
          </g>
        </g>
      </g>
    </g>
    <g id="Gruppe_1772" data-name="Gruppe 1772" transform="translate(27 200)">
      <g id="Gruppe_176-3" data-name="Gruppe 176" transform="translate(149.038 243)" clip-path="url(#clip-path-3)">
        <g id="Gruppe_175-3" data-name="Gruppe 175" transform="translate(-95.503 -156.757)" clip-path="url(#clip-path-4)">
          <g id="Gruppe_174-3" data-name="Gruppe 174" transform="translate(95.503 156.757)">
            <path id="Pfad_67-3" data-name="Pfad 67" d="M0,0H9.88V15.807H0Z" fill="#fff" stroke="#000" stroke-width="4"/>
          </g>
        </g>
      </g>
    </g>
    <g id="Gruppe_1771" data-name="Gruppe 1771" transform="translate(41 180)">
      <g id="Gruppe_176-4" data-name="Gruppe 176" transform="translate(149.038 243)" clip-path="url(#clip-path-3)">
        <g id="Gruppe_175-4" data-name="Gruppe 175" transform="translate(-95.503 -156.757)" clip-path="url(#clip-path-4)">
          <g id="Gruppe_174-4" data-name="Gruppe 174" transform="translate(95.503 156.757)">
            <path id="Pfad_67-4" data-name="Pfad 67" d="M0,0H9.88V15.807H0Z" fill="#fff" stroke="#000" stroke-width="4"/>
          </g>
        </g>
      </g>
    </g>
    <g id="Gruppe_1773" data-name="Gruppe 1773" transform="translate(41 200)">
      <g id="Gruppe_176-5" data-name="Gruppe 176" transform="translate(149.038 243)" clip-path="url(#clip-path-3)">
        <g id="Gruppe_175-5" data-name="Gruppe 175" transform="translate(-95.503 -156.757)" clip-path="url(#clip-path-4)">
          <g id="Gruppe_174-5" data-name="Gruppe 174" transform="translate(95.503 156.757)">
            <path id="Pfad_67-5" data-name="Pfad 67" d="M0,0H9.88V15.807H0Z" fill="#fff" stroke="#000" stroke-width="4"/>
          </g>
        </g>
      </g>
    </g>
    <g id="Group_9" data-name="Group 9" transform="translate(182.468 408.687) rotate(-90)" clip-path="url(#clip-path-11)">
      <path id="Fill_7" data-name="Fill 7" d="M3.923,6.9c.812.789,1.629,1.572,2.432,2.37a1.073,1.073,0,0,1,.2,1.38,1.009,1.009,0,0,1-1.231.5,1.44,1.44,0,0,1-.6-.367Q2.575,8.661.456,6.515A1.131,1.131,0,0,1,.47,4.69Q2.567,2.57,4.681.467A1.12,1.12,0,0,1,6.406.355a1.16,1.16,0,0,1-.146,1.687C5.5,2.809,4.717,3.56,3.944,4.318l.076.158h.752l13.746,0c.109,0,.218,0,.327,0A1.181,1.181,0,0,1,20.133,5.59c.008.672-.507,1.126-1.324,1.127q-6.775.006-13.549,0H4.031l-.109.18" transform="translate(0 0)"/>
    </g>
  </g>
</svg>
