<svg xmlns="http://www.w3.org/2000/svg" width="55.145" height="55.66" viewBox="0 0 55.145 55.66">
  <g id="Gruppe_1767" data-name="Gruppe 1767" transform="translate(-165.552 -196.727)">
    <path id="Pfad_934" data-name="Pfad 934" d="M195.009,251.886c-1.314-.091-2.534-.144-3.745-.272a23.447,23.447,0,0,1-2.525-.434,22.155,22.155,0,0,1-2.451-.651,27.908,27.908,0,0,1-4.41-1.831c-.625-.342-1.289-.619-1.891-1a23.33,23.33,0,0,1-2.28-1.595c-1.163-.938-2.333-1.878-3.4-2.923a26.536,26.536,0,0,1-3.122-3.789,31.157,31.157,0,0,1-2.3-3.941,19.477,19.477,0,0,1-.907-2.2c-.341-.963-.648-1.939-.933-2.92a19.253,19.253,0,0,1-.428-1.885,25.082,25.082,0,0,1-.406-2.6c-.1-1.348-.155-2.7-.156-4.055a19.247,19.247,0,0,1,.212-2.5c.093-.714.249-1.421.394-2.128s.264-1.419.476-2.1c.283-.916.621-1.816.978-2.706.34-.85.7-1.7,1.113-2.513a25.342,25.342,0,0,1,1.378-2.428,29.072,29.072,0,0,1,1.977-2.759,33.58,33.58,0,0,1,2.493-2.635,26.234,26.234,0,0,1,4.475-3.469c.675-.416,1.395-.762,2.064-1.187a.731.731,0,0,1,.965.14,1.3,1.3,0,0,1,.238.8c.026.455-.4.664-.649.949a29,29,0,0,0-3.245,4.347,19.939,19.939,0,0,0-1.843,3.728c-.336.974-.724,1.931-1.022,2.917-.22.727-.32,1.489-.5,2.231a15.449,15.449,0,0,0-.432,3.534c0,.85-.1,1.7-.066,2.548.038.9.174,1.794.286,2.688.082.66.163,1.324.3,1.973.145.674.357,1.334.545,2,.15.527.284,1.061.468,1.576.212.592.45,1.176.716,1.745.31.663.661,1.306,1,1.957a22.8,22.8,0,0,0,2.5,3.8,27.775,27.775,0,0,0,3.3,3.483,24,24,0,0,0,3.25,2.485c1.147.712,2.344,1.352,3.556,1.949a19.832,19.832,0,0,0,2.478.954c.765.256,1.547.465,2.331.659.684.169,1.381.283,2.07.432a23.213,23.213,0,0,0,5.713.339c.907-.031,1.809-.219,2.714-.335.225-.029.453-.034.675-.078.682-.137,1.37-.254,2.039-.441A24.443,24.443,0,0,0,213.9,241.9c.287-.152.584-.287.882-.416a.858.858,0,0,1,1.136.755,1.068,1.068,0,0,1-.23.71c-.8.8-1.613,1.6-2.488,2.313-.964.789-1.984,1.514-3.016,2.214a15.272,15.272,0,0,1-1.978,1.1c-1.1.527-2.208,1.043-3.342,1.493a22.876,22.876,0,0,1-2.453.752c-.784.213-1.576.406-2.373.561-.605.118-1.223.179-1.839.236C197.107,251.725,196.012,251.8,195.009,251.886Zm14.993-6.5a28.682,28.682,0,0,1-22.437-2.95,27.785,27.785,0,0,1-13.4-17.906,28.582,28.582,0,0,1,3.523-22.386,26.022,26.022,0,0,0-6.566,7.88A26.46,26.46,0,0,0,168,219.869a26.854,26.854,0,0,0,.851,10.483,26.448,26.448,0,0,0,4.616,9.132,23.437,23.437,0,0,0,3.993,4.175,34.662,34.662,0,0,0,4.757,3.214,27.307,27.307,0,0,0,5.363,2.164,25.6,25.6,0,0,0,5.777.98,26.492,26.492,0,0,0,5.93-.324,28.1,28.1,0,0,0,5.588-1.541A23.808,23.808,0,0,0,210,245.382Z" stroke="#1a1919" stroke-width="1"/>
    <path id="Pfad_935" data-name="Pfad 935" d="M233.509,230.362c0,2.2,0,4.4-.005,6.6,0,.29.1.388.376.489a3.427,3.427,0,0,1,1.967,1.751,3.311,3.311,0,0,1,.4,1.708,3.573,3.573,0,0,1-1.882,3.069,3.689,3.689,0,0,1-3.239.132,3.349,3.349,0,0,1-1.654-1.553,4.129,4.129,0,0,1-.366-2.279.432.432,0,0,0-.267-.5c-1.308-.671-2.6-1.382-3.888-2.085-1.019-.555-2.033-1.12-3.051-1.675-.454-.248-.918-.477-1.369-.728a.859.859,0,0,1-.379-1.266,1.09,1.09,0,0,1,1.354-.238c1.036.553,2.062,1.125,3.093,1.689.859.47,1.718.941,2.58,1.406.839.453,1.69.883,2.519,1.353.378.214.517-.139.754-.251.362-.17.7-.385,1.064-.56.178-.086.283-.168.283-.394-.008-4.246.017-8.493-.034-12.739a2.913,2.913,0,0,1,.405-1.34c.111-.241.807-.18,1.059.045a.876.876,0,0,1,.289.718C233.507,225.935,233.509,228.148,233.509,230.362Zm.946,10.462a1.819,1.819,0,1,0-3.633.15,1.9,1.9,0,0,0,1.962,1.672A1.878,1.878,0,0,0,234.455,240.824Z" transform="translate(-37.719 -17.871)" stroke="#1a1919" stroke-width="1"/>
    <path id="Pfad_936" data-name="Pfad 936" d="M324.126,318.082c-.079-.631.732-.96,1.277-.7a11.762,11.762,0,0,1,1.681,1.023.906.906,0,0,1,.152,1.248.863.863,0,0,1-1.134.178c-.5-.285-.991-.606-1.511-.859A.847.847,0,0,1,324.126,318.082Z" transform="translate(-110.511 -83.93)" stroke="#1a1919" stroke-width="1"/>
    <path id="Pfad_937" data-name="Pfad 937" d="M297.523,212.846a.675.675,0,0,1-.745-.355,1.107,1.107,0,0,1,.023-1.066c.269-.488.561-.964.838-1.449a1.224,1.224,0,0,1,.948-.435.875.875,0,0,1,.653,1.059,7.586,7.586,0,0,1-.558,1.187,5.093,5.093,0,0,1-.407.7A.743.743,0,0,1,297.523,212.846Z" transform="translate(-91.307 -8.589)" stroke="#1a1919" stroke-width="1"/>
    <path id="Pfad_938" data-name="Pfad 938" d="M324.136,241.113a.8.8,0,0,1,.509-.826c.581-.288,1.126-.66,1.726-.891a.8.8,0,0,1,1.06.693,1.2,1.2,0,0,1-.394.851,8.613,8.613,0,0,1-1.525.9C324.915,242.136,324.056,241.908,324.136,241.113Z" transform="translate(-110.518 -29.436)" stroke="#1a1919" stroke-width="1"/>
    <path id="Pfad_939" data-name="Pfad 939" d="M260.934,200.536c0,.324.006.649,0,.973a.721.721,0,0,1-.637.749c-.631.056-.987-.114-1.024-.612a17.477,17.477,0,0,1-.009-2.26.81.81,0,0,1,.936-.663.835.835,0,0,1,.736.8c0,.168,0,.336,0,.5S260.935,200.368,260.934,200.536Z" transform="translate(-65.144 -1.031)" stroke="#1a1919" stroke-width="1"/>
    <path id="Pfad_940" data-name="Pfad 940" d="M335.968,279.825c.312,0,.625,0,.937,0a.843.843,0,0,1,.847.732.809.809,0,0,1-.7.934,15.968,15.968,0,0,1-2.116.023c-.581-.038-.774-.379-.719-1.048.033-.4.352-.639.854-.642C335.367,279.823,335.668,279.825,335.968,279.825Z" transform="translate(-117.56 -57.734)" stroke="#1a1919" stroke-width="1"/>
  </g>
</svg>
