<svg xmlns="http://www.w3.org/2000/svg" xmlns:xlink="http://www.w3.org/1999/xlink" width="61.133" height="47.7" viewBox="0 0 61.133 47.7">
  <defs>
    <clipPath id="clip-path">
      <path id="Clip_5" data-name="Clip 5" d="M0,0H37.142V47.663H0Z" fill="none"/>
    </clipPath>
    <clipPath id="clip-path-2">
      <path id="Clip_8" data-name="Clip 8" d="M0,0H20.133V11.2H0Z" fill="none"/>
    </clipPath>
  </defs>
  <g id="Gruppe_1776" data-name="Gruppe 1776" transform="translate(-154 -416.023)">
    <g id="Group_6" data-name="Group 6" transform="translate(169 416)">
      <path id="Clip_5-2" data-name="Clip 5" d="M0,0H37.142V47.663H0Z" transform="translate(0.133 0.059)" fill="none"/>
      <g id="Group_6-2" data-name="Group 6" transform="translate(0.133 0.059)" clip-path="url(#clip-path)">
        <path id="Fill_4" data-name="Fill 4" d="M9.933,24.1v-.643q0-9.65.005-19.3a4.173,4.173,0,0,1,8.342-.133c.031,2.751.01,5.5.011,8.254v.6c3.242-.843,4.541-.358,6.068,2.236a4.376,4.376,0,0,1,6.312,2.091,4.31,4.31,0,0,1,3.053-.565,4.07,4.07,0,0,1,3.392,3.921c.041,2.891.036,5.786-.067,8.676a32,32,0,0,1-1.783,8.151Q34.2,40.895,33.2,44.424a9.486,9.486,0,0,0-.234,1.86c-.065.9-.459,1.4-1.13,1.366s-1.011-.551-.973-1.479a26.048,26.048,0,0,1,1.444-6.491c.8-2.628,1.615-5.254,2.3-7.912a16.558,16.558,0,0,0,.415-3.667c.063-2.406.032-4.814.017-7.222a2.092,2.092,0,0,0-2.853-2.093,1.973,1.973,0,0,0-1.327,1.928c-.016.951,0,1.9-.008,2.852-.007.825-.4,1.289-1.055,1.283s-1.043-.475-1.046-1.3c-.005-1.578,0-3.156-.005-4.734a2.064,2.064,0,0,0-2.05-2.24,2.089,2.089,0,0,0-2.131,2.237c-.011.93.005,1.861-.005,2.792-.008.728-.413,1.173-1.035,1.173a1.061,1.061,0,0,1-1.05-1.173c-.012-1.618,0-3.237-.006-4.855a2.053,2.053,0,0,0-2.1-2.245,2.083,2.083,0,0,0-2.076,2.285c0,1.578,0,3.156,0,4.734,0,.778-.382,1.243-1.015,1.256-.65.013-1.074-.482-1.074-1.271q0-8.618,0-17.236a2.077,2.077,0,0,0-2.638-2.13A2.041,2.041,0,0,0,12.027,4.23c-.008,2.974,0,5.948,0,8.922q0,7.253.006,14.505c0,.6-.125,1.091-.769,1.285a1.223,1.223,0,0,1-1.5-.728c-1.247-2.134-2.487-4.272-3.74-6.4a2.03,2.03,0,0,0-2.106-1.058,1.908,1.908,0,0,0-1.726,1.572,2.446,2.446,0,0,0,.249,1.555A33.219,33.219,0,0,1,6.517,33.7a15,15,0,0,0,2.149,4.664q2.551,3.71,5.083,7.431a1.367,1.367,0,0,1,.317.925,1.564,1.564,0,0,1-.73.854.9.9,0,0,1-1.158-.418q-1.507-2.1-3-4.217c-.327-.464-.624-.95-.959-1.408a26.889,26.889,0,0,1-4.518-9.8,23.246,23.246,0,0,0-3.02-6.66,4.074,4.074,0,0,1,.584-5.229,4.187,4.187,0,0,1,6.463.779c.721,1.147,1.38,2.333,2.066,3.5l.136-.021" transform="translate(0 0)"/>
      </g>
    </g>
    <g id="Group_9" data-name="Group 9" transform="translate(154 416)">
      <path id="Clip_8-3" data-name="Clip 8" d="M0,0H20.133V11.2H0Z" transform="translate(0 0.023)" fill="none"/>
      <g id="Group_9-2" data-name="Group 9" transform="translate(0 0.023)" clip-path="url(#clip-path-2)">
        <path id="Fill_7" data-name="Fill 7" d="M3.923,6.9c.812.789,1.629,1.572,2.432,2.37a1.073,1.073,0,0,1,.2,1.38,1.009,1.009,0,0,1-1.231.5,1.44,1.44,0,0,1-.6-.367Q2.575,8.661.456,6.515A1.131,1.131,0,0,1,.47,4.69Q2.567,2.57,4.681.467A1.12,1.12,0,0,1,6.406.355a1.16,1.16,0,0,1-.146,1.687C5.5,2.809,4.717,3.56,3.944,4.318l.076.158h.752l13.746,0c.109,0,.218,0,.327,0A1.181,1.181,0,0,1,20.133,5.59c.008.672-.507,1.126-1.324,1.127q-6.775.006-13.549,0H4.031l-.109.18" transform="translate(0 0)"/>
      </g>
    </g>
    <g id="Group_9-3" data-name="Group 9" transform="translate(215.133 427.242) rotate(180)">
      <path id="Clip_8-4" data-name="Clip 8" d="M0,0H20.133V11.2H0Z" transform="translate(0 0.023)" fill="none"/>
      <g id="Group_9-4" data-name="Group 9" transform="translate(0 0.023)" clip-path="url(#clip-path-2)">
        <path id="Fill_7-2" data-name="Fill 7" d="M3.923,6.9c.812.789,1.629,1.572,2.432,2.37a1.073,1.073,0,0,1,.2,1.38,1.009,1.009,0,0,1-1.231.5,1.44,1.44,0,0,1-.6-.367Q2.575,8.661.456,6.515A1.131,1.131,0,0,1,.47,4.69Q2.567,2.57,4.681.467A1.12,1.12,0,0,1,6.406.355a1.16,1.16,0,0,1-.146,1.687C5.5,2.809,4.717,3.56,3.944,4.318l.076.158h.752l13.746,0c.109,0,.218,0,.327,0A1.181,1.181,0,0,1,20.133,5.59c.008.672-.507,1.126-1.324,1.127q-6.775.006-13.549,0H4.031l-.109.18" transform="translate(0 0)"/>
      </g>
    </g>
  </g>
</svg>
