<svg xmlns="http://www.w3.org/2000/svg" width="71.955" height="23.92" viewBox="0 0 71.955 23.92"><defs><style>.a{fill:#fff;}</style></defs><g transform="translate(-19.447 -7.501)"><path class="a" d="M151.507,18.395c.107-.107.7-.589.857-.7.536-.375.643-.375.375.428,0,.161-.107.75-.268.857-.482.589-1.178.054-.964-.589Zm-4.552-3.8c.428-.161,1.981-1.232,1.232,0l-.428.91c-.482.375-1.285-.482-.8-.91Zm-4.284,3.695a4.023,4.023,0,0,1,3.267-2.41c.75,0,1.714.75,1.714,1.446a4.464,4.464,0,0,1-.375,2.838c-.482,0-1.928,2.356-2.41,2.356-.75,0-1.714,0-1.874-.857a4.679,4.679,0,0,0-.161-2.142c-.161-.643-.321-.643-.161-1.232Zm-2.3-1.232a1.472,1.472,0,0,1,1.017-.7c.75-.321.75-.214.268.375a1.657,1.657,0,0,1-.7.964c-.589.321-.857-.214-.589-.643Zm-4.177,2.838a4.73,4.73,0,0,1,2.517-1.446,4.81,4.81,0,0,0,1.928.268h.268a2.838,2.838,0,0,1,.536,1.928,4.658,4.658,0,0,1-2.088,2.945,3.617,3.617,0,0,1-2.517.268c-1.071-.428-1.232-2.945-.643-3.963ZM145.777,36.6c-.7.75-2.678,1.874-3.8,1.017a4.709,4.709,0,0,1-1.714-2.517H140.1a5.459,5.459,0,0,1-2.088-.75c-.428-.375-1.232-1.928-1.553-2.249V32c-.428,0-.7.268-1.339,0a2.914,2.914,0,0,1-1.821-2.41c0-1.285,1.392-3.374,2.678-3.641a9.775,9.775,0,0,1,2.838-.589,7.765,7.765,0,0,1,2.785-1.178,5.985,5.985,0,0,1,2.142-.482c1.125.268,1.125,1.928,1.553,2.249a1.92,1.92,0,0,1,1.339,2.3c-.75,2.624,0,3.695.428,5.194a6.419,6.419,0,0,1-1.285,3.159Zm1.285-13.013a5.307,5.307,0,0,1,1.017-2.41c1.017-1.178,1.714-1.446,2.2-1.446a5.989,5.989,0,0,0,1.714.428c.161,0,.321,0,.321.161a6.943,6.943,0,0,1-.161,2.785,4.847,4.847,0,0,1-1.714,2.2c-1.5.91-3.481.536-3.374-1.714Zm4.123,8.193c-.589.482-.589,1.071-1.767,1.392-1.232.268-1.928-1.392-1.928-2.035A3.1,3.1,0,0,1,148.508,29c.428-.536.428-1.714,1.232-2.035,1.981-.75,2.57,1.285,2.678,2.624a3.718,3.718,0,0,1-1.232,2.2Zm1.66-5.087a.552.552,0,0,1-.7-.857,2.574,2.574,0,0,0,.8-.75c.268-.589.482-.321.482.107a1.8,1.8,0,0,1-.589,1.5Z" transform="translate(-62.041 -6.507)"/><path class="a" d="M39.238,32.208c0,2.2.482,3.749,1.392,4.659a5.937,5.937,0,0,0,4.338,1.392c.589,0,1.178-.054,1.767-.107a8.971,8.971,0,0,0,1.928-.428l-.7-3.481A3.032,3.032,0,0,1,47,34.4a5.82,5.82,0,0,1-.964.054,2.29,2.29,0,0,1-1.5-.482,2.443,2.443,0,0,1-.589-1.874V23.907h4.07V20.212h-4.07V15.5H39.185v4.712H36.4v3.695h2.785l.054,8.3Zm22.331,5.676h4.445V26.746a10.322,10.322,0,0,0-.375-2.945,5.858,5.858,0,0,0-1.232-2.2,5.77,5.77,0,0,0-2.3-1.392,10.8,10.8,0,0,0-3.427-.482,10.218,10.218,0,0,0-5.3,1.232,5.594,5.594,0,0,0-2.463,4.016l4.338.428c.268-1.446,1.339-2.142,3.213-2.142a4.146,4.146,0,0,1,2.142.589,2.611,2.611,0,0,1,.91,2.249v.857l-2.3.054a33.2,33.2,0,0,0-3.32.321,9.979,9.979,0,0,0-2.945.91,5.429,5.429,0,0,0-2.142,1.821,5.1,5.1,0,0,0-.8,3,5.694,5.694,0,0,0,.482,2.41,4.049,4.049,0,0,0,1.232,1.607,5.658,5.658,0,0,0,1.874.964,7.611,7.611,0,0,0,2.249.321,6.842,6.842,0,0,0,3.374-.75,8.879,8.879,0,0,0,2.356-1.928v2.2Zm-.107-6.962a3.811,3.811,0,0,1-.428,1.821,3.261,3.261,0,0,1-1.071,1.178,4.748,4.748,0,0,1-3,.857A2.824,2.824,0,0,1,55.25,34.3a1.619,1.619,0,0,1-.589-1.392,3.453,3.453,0,0,1,.161-1.071,1.548,1.548,0,0,1,.643-.8,4.926,4.926,0,0,1,1.392-.589,11.94,11.94,0,0,1,2.41-.321l2.088-.107.107.91Zm7.176,6.962H83.257l.428-3.695h-9l8.568-10.764V20.212H68.8v3.695h8.407L68.637,34.671v3.213Z" transform="translate(-16.953 -7.2)"/></g></svg>