<svg xmlns="http://www.w3.org/2000/svg" width="44.403" height="63.783" viewBox="0 0 44.403 63.783">
  <path id="Pfad_942" data-name="Pfad 942" d="M201.56,172.988c0-1.223,0-2.4,0-3.584,0-1.258-.011-2.515,0-3.773a3.648,3.648,0,0,1,2.219-3.157,3.709,3.709,0,0,1,3.759.413,3.631,3.631,0,0,1,1.547,3.036c.026,2.076.01,4.153,0,6.229,0,.261-.044.522-.073.836h.529c7.809,0,15.617-.011,23.426.007a5.211,5.211,0,0,1,4.853,3.227,5.141,5.141,0,0,1,.393,1.988q.035,17.459.019,34.918a4.223,4.223,0,0,1-1.7,3.485,9.365,9.365,0,0,1-1.571.907c-1.124.567-2.261,1.106-3.392,1.657q-2.314,1.126-4.628,2.253c-1.134.556-2.255,1.138-3.4,1.679-1.593.754-3.178,1.532-4.808,2.2a6.087,6.087,0,0,1-3.179.579,11.075,11.075,0,0,1-1.522-.34,31.514,31.514,0,0,1-5.091-2.216c-2.046-1.016-4.107-2-6.158-3.006-1.953-.957-3.917-1.9-5.843-2.9A9.249,9.249,0,0,1,195,216.031a3.957,3.957,0,0,1-1.164-3.066q0-12.569,0-25.137,0-4.672,0-9.344a5.347,5.347,0,0,1,1.145-3.473,5.282,5.282,0,0,1,4-2.015C199.822,172.949,200.669,172.988,201.56,172.988Zm-4.738,12.388v.352q0,13.618,0,27.236a1.388,1.388,0,0,0,.745,1.3c1.193.653,2.4,1.278,3.617,1.892,1.17.592,2.355,1.152,3.532,1.731,1.139.56,2.274,1.127,3.412,1.687,1.161.57,2.315,1.158,3.491,1.7,1.122.512,2.258,1,3.411,1.433a2.491,2.491,0,0,0,1.316.167,16.984,16.984,0,0,0,4.134-1.6c1.129-.571,2.265-1.128,3.4-1.686,1.346-.661,2.695-1.316,4.042-1.976,1.162-.569,2.321-1.144,3.485-1.712.953-.465,1.917-.909,2.863-1.388a1.712,1.712,0,0,0,1-1.693q-.032-13.464-.014-26.929V185.4H204.542c0,1.221.011,2.406,0,3.589a1.5,1.5,0,1,1-2.99-.015,9.592,9.592,0,0,0,.008-1.183v-2.411Zm7.736-3.11h30.656a.705.705,0,0,0,.03-.122c0-1.213-.015-2.427.01-3.64a2.382,2.382,0,0,0-2.468-2.487q-13.88.025-27.761.007c-.154,0-.309.015-.466.024Zm-3.022-6.179a18.609,18.609,0,0,0-2.876.03,2.19,2.19,0,0,0-1.838,2.372v3.372c0,.139,0,.277,0,.415h4.715Zm4.5-7.01h0c0-1.05.016-2.1-.013-3.151a.922.922,0,0,0-.285-.665.794.794,0,0,0-1.183.67c-.014,2.071-.008,4.143,0,6.215a.831.831,0,0,0,.753.8.763.763,0,0,0,.732-.8C206.036,171.119,206.034,170.1,206.034,169.077Z" transform="translate(-193.834 -162.146)"/>
</svg>
